<svg width="44" height="26" viewBox="0 0 44 26" fill="none" xmlns="http://www.w3.org/2000/svg">
<path d="M5.62891 11.0234V5.66211H12.0098C13.0469 5.66211 13.5215 5.75 13.9434 5.92578C14.9629 6.33008 15.7188 7.17383 15.7188 8.35156C15.7188 9.56445 14.9277 10.373 13.9434 10.7773C13.5039 10.9531 13.0293 11.0234 12.0273 11.0234H5.62891ZM5.62891 26V15.8574H12.7129C14.8574 15.8574 16.3164 15.4355 17.5117 14.6797C19.5859 13.3789 20.9043 11.1113 20.9043 8.35156C20.9043 5.48633 19.5859 3.25391 17.5469 1.98828C16.334 1.21484 14.8574 0.810547 12.7129 0.810547H0.373047V26H5.62891ZM22.8906 21.6406C26.3887 24.7695 30.2734 26 33.6309 26C39.0449 26 43.2461 22.7305 43.2461 18.2832C43.2461 12.5703 38.1133 11.1465 33.877 10.4434C30.3086 9.8457 28.2344 9.37109 28.2344 7.71875C28.2344 6.20703 30.1855 5.53906 32.0312 5.53906C34.2988 5.53906 36.7422 6.38281 38.4121 7.78906L41.4004 4.04492C38.6055 1.84766 35.2832 0.775391 32.1016 0.775391C26.3535 0.775391 23.1367 4.0625 23.1367 8.19336C23.1367 12.2363 26.5117 13.9941 30.7305 14.873C34.4395 15.6465 38.0781 15.9453 38.0781 18.3008C38.0781 20.2344 35.6875 21.1133 33.543 21.1133C30.7832 21.1133 28.1465 19.7773 26.0547 17.8613L22.8906 21.6406Z" fill="#00C4F0"/>
</svg>
