<svg width="50" height="27" viewBox="0 0 50 27" fill="none" xmlns="http://www.w3.org/2000/svg">
<path d="M0.109375 0.792969V14.4688C0.109375 15.5762 0.232422 16.666 0.478516 17.6855C1.65625 22.5723 5.54102 26.0176 11.0254 26.0176C16.5098 26.0176 20.377 22.5723 21.5547 17.6855C21.7832 16.666 21.9238 15.5762 21.9238 14.4688V0.792969H16.668V14.5566C16.668 15.3652 16.5625 16.1562 16.3516 16.9121C15.7012 19.2676 13.9609 21.1484 11.0078 21.1484C8.08984 21.1484 6.34961 19.2676 5.68164 16.9121C5.4707 16.1562 5.36523 15.3652 5.36523 14.5566V0.792969H0.109375ZM23.998 26H30.4844L36.6719 16.9297L42.8594 26H49.3633L39.7129 12.6934L48.3262 0.810547H41.875L36.6719 8.42188L31.4688 0.810547H25.0176L33.6309 12.6934L23.998 26Z" fill="#00C4F0"/>
</svg>
